# xmcd
#
# Track frame offsets: 
#        150
#        14753
#        23614
#        36160
#        65325
#        81730
#        94985
#        108284
#        120238
#        133561
#        151016
#        167066
#        183103
#        196295
#
# Disc length: 2775 seconds
#
# Revision: 9
# Processed by: cddbd v1.5.2PL0 Copyright (c) Steve Scherf et al.
# Submitted via: ExactAudioCopy v0.95a4
#
DISCID=ad0ad50e
DTITLE=Ray Charles - His Greatest Hits CD1
DYEAR=1999
DGENRE=Jazz
TTITLE0=Born To Lose
TTITLE1=Hit The Road Jack
TTITLE2=Yesterday
TTITLE3=What'd I Say
TTITLE4=Georgia On My Mind
TTITLE5=Crying Time
TTITLE6=Let's Get Stoned
TTITLE7=Together Again
TTITLE8=Eleanor Rigby
TTITLE9=Ruby
TTITLE10=Without Love (There Is Nothing)
TTITLE11=Your Cheating Heart
TTITLE12=Take These Chains From My Heart
TTITLE13=C.C. Rider
EXTD=YEAR: 1999
EXTT0=
EXTT1=
EXTT2=
EXTT3=
EXTT4=
EXTT5=
EXTT6=
EXTT7=
EXTT8=
EXTT9=
EXTT10=
EXTT11=
EXTT12=
EXTT13=
PLAYORDER=
